<svg xmlns="http://www.w3.org/2000/svg" xmlns:xlink="http://www.w3.org/1999/xlink" version="1.1" x="0px" y="0px" viewBox="0 0 100 125" enable-background="new 0 0 100 100" xml:space="preserve"><path d="M89.3443069,23.7026253c-1.5225525,0.598711-3.0501938,0.9665833-4.6217804,1.1417637  c1.0149078-1.5487099,1.9429092-3.216835,2.9117889-4.9397945c1.4158859-2.5178642-2.455368-4.7804298-3.8711472-2.2627831  c-1.8772354,3.3382721-3.6225204,7.432703-7.0500565,9.4511318c-1.6286621,0.9590855-3.4522705,1.521677-5.285614,2.0571766  c0.5745773-1.6522522,0.7693481-3.4253979,0.5158539-5.216547c-0.1395493-0.9858456-0.5440903-1.8129311-0.8931885-2.670826  c0.1647263-0.0632095,0.330986-0.1448078,0.4986649-0.2597885c4.1781616-2.864996,10.0106583-3.4172974,12.3136673-8.532217  c1.1750412-2.6097517-2.6872406-4.8921275-3.8710938-2.262784c-1.432251,3.180933-5.0594788,4.1959496-8.1994247,5.5860071  c0.6459961-2.7566376-3.6190186-3.9172268-4.3312836-1.1383696c-0.6105881,2.3822527-2.2237625,3.8024092-1.2931366,6.4213552  c0.076561,0.2154579,0.1519165,0.4262104,0.2253647,0.6330776c-0.7892151-0.3831959-1.6121979-0.6902122-2.4873314-0.9973392  c-1.4587936-0.5119686-1.7861137-1.0325832-1.8638802-2.6077251c-0.0286751-0.5811977-0.2404137-1.0394249-0.5505486-1.3863373  c1.1336632-2.0177183,3.4077187-3.9864559,4.6988869-5.5195684c1.8473511-2.1935005-1.3084641-5.3806181-3.1701546-3.1700983  c-2.0282249,2.4083023-5.1651039,5.0350742-6.4522743,7.9286375c-0.4445992,0.9995832-0.402626,1.9678068-0.3014336,3.0308733  c0.2247086,2.359869,0.5857391,4.039814-0.0170212,6.4449425c-0.1363258,0.5439281-0.0792427,1.0248661,0.1004219,1.4300632  c-0.1591988,0.3951263-0.3154984,0.7821522-0.4728355,1.1592197c-1.7161751-1.3262463-3.2733688-2.8339119-4.6438332-4.5039501  c0.37006-0.8488655,0.6583061-1.7357674,0.8508339-2.6522198c0.2084007-0.1729908,0.3982468-0.3950729,0.5522499-0.6875324  c1.5889893-3.0178471,3.3020973-5.9617052,5.1409149-8.834199c1.5600929-2.437088-2.3186607-4.687942-3.8711472-2.2627287  c-0.263237,0.4111614-0.5050201,0.834691-0.7627831,1.2489719c-0.145298-0.1674089-0.3050461-0.3260612-0.4883232-0.4641371  c-2.1797638-1.6419096-4.1406212-3.6412396-5.7518845-5.8424015c-0.7140198-0.9754484-1.9457512-1.4599984-3.0669403-0.8042085  c-0.9625854,0.5630281-1.523262,2.0846488-0.8042068,3.0669377c0.9722748,1.3282166,2.0216599,2.5561194,3.1409302,3.7136979  c-1.3718338-1.0122242-4.0059395,0.1972351-3.5824661,2.4403172c0.4395103,2.3282375-0.0889282,4.3936224,0.7701683,6.6763811  c0.614254,1.6321697,1.4887848,3.1692772,2.458107,4.6192055c-1.296257,1.551775-3.1045914,2.638483-5.3549538,3.2305164  c-3.3051071,0.8694973-4.1454353,2.6402893-5.5507088,5.070591c-2.314827-4.3656559-0.4723434-9.9469013,2.3130798-13.7644157  c1.7026024-2.3334913-2.1856194-4.5729074-3.8711472-2.262785c-1.1074486,1.5177898-2.024395,3.1972961-2.7008705,4.9652424  c-0.179121-0.132658-0.3763561-0.2524548-0.6139793-0.3389225c-3.44384-1.2532406-7.3674698-3.6024933-7.8895626-7.6101828  c-0.3674889-2.8206673-4.8554592-2.8572798-4.4832096,0c0.8130207,6.2404833,5.5696983,9.8912458,11.1809902,11.9332628  c0.2567215,0.0934181,0.4945087,0.1260891,0.7216797,0.1317806c-0.302145,2.0792866-0.2457218,4.205965,0.2639465,6.2857437  c1.3207188,5.3895359,6.2818584,6.7230091,9.0130482,10.759428c-1.9189911,0.4967003-4.0022736,1.3418427-5.7228813,0.4719086  c-2.2620163-1.1436234-2.8945465-4.8523941-3.9409218-6.9494133c-0.7995014-1.6022339-1.8054333-2.9499855-3.1582756-4.1239281  c-2.2986851-1.9947319-6.2919273-3.4100742-6.5738792-6.9238014c-0.2291946-2.856348-4.7143745-2.8809757-4.4832096,0  c0.2627983,3.2746811,1.745945,5.5084057,4.3021202,7.5177498c-2.6703892,1.4951897-5.4859123,2.7520943-8.5775318,1.6763878  c-2.7305336-0.9500008-3.9040923,3.3793716-1.1918383,4.3230782c4.7286587,1.6453056,9.1977491-0.4825783,13.2555685-2.827507  c0.1317825-0.0761795,0.2433147-0.1623726,0.3493195-0.2509232c0.7208061,0.6482391,1.3737507,1.3778,1.9030113,2.2915154  c0.5686111,0.9816322,0.9572239,2.0532379,1.370739,3.1136208c-1.3489571-0.0961533-2.7022934,0.1398277-3.9865646,0.8610153  c-1.0705624,0.6011734-1.7817917,1.5286255-2.660099,2.34832c-1.7643337,1.6466713-3.4306526,0.7881737-5.6039028,0.3494301  c-2.8170013-0.568718-4.0222473,3.7516251-1.1918383,4.3230247c2.3873968,0.4820328,5.0739298,1.4452782,7.4352217,0.4339294  c2.4864521-1.0649261,3.8893166-5.0004311,7.0525169-3.5781403c0.6893921,0.3099709,1.3526802,0.2626877,1.9118767,0.0122032  c1.437397,1.3761597,3.2512035,2.2756462,5.3674297,2.2793655c2.1684914,0.0038872,4.6923218-1.612793,6.7725906-1.2153702  c2.9734116,0.5680656,1.9006042,4.9840164,1.8718147,7.1733551c-0.0690651,5.2619705,0.6638908,11.3685379-0.7367287,16.4753571  c-1.5544548,5.6674423-5.757576,5.5851898-10.6042786,6.5018616c-7.6492577,1.44664-14.4672718,5.8367615-19.247921,11.9231873  c-1.7626362,2.2441254,1.3885803,5.4382477,3.1700983,3.1700974c2.9301758-3.7305527,6.5118732-6.7689743,10.8460064-8.7592239  c3.8093605-1.7492828,7.922945-1.6264191,11.7898235-2.7064514c-2.5662422,3.2002563-6.8398495,4.7726593-10.552124,6.681694  c-2.5665722,1.3198395-0.3012161,5.189621,2.2627831,3.8710861c4.1488838-2.1335144,8.3136406-3.9775314,11.2338562-7.1601105  c-0.8362236,1.1561584-1.6764412,2.3830185-2.7406578,3.6447449c-2.7561989,3.2677841-8.0824738,3.4068451-11.4769516,6.0772324  c-2.2659035,1.7825623,0.9261398,4.9354172,3.1700974,3.1700974c3.1196938-2.4541626,7.4888535-2.3756866,10.5340118-5.0502319  c1.3107567-1.1512833,2.147583-2.6048279,3.0308723-4.0912552c1.3059425-2.1978226,2.823513-3.7365189,4.966938-4.9111176  c-0.7167549,1.9483795-2.0995331,3.5411453-2.6273727,5.7702179c-0.6117897,2.5837021,0.0681915,5.3052063,1.6250534,7.40802  c1.6980057,2.2934875,5.5909348,0.0601425,3.8711472-2.2627258c-2.0973434-2.8329315-0.8529701-4.6493607,0.6295776-7.2917328  c1.001442-1.7848511,1.4625702-3.6972198,1.4445076-5.7035065c0.3440666,0.0192642,0.6879692-0.0447083,1.006752-0.1841507  c1.9985085,2.1201096,2.7340927,4.9111176,3.9565201,7.4813538c0.0621719,0.3765717,0.1229706,0.751236,0.1844292,1.1212921  c0.1600227,0.9639587,0.7662849,1.4526138,1.4755974,1.5791931c0.7541313,0.8662186,1.6091843,1.3781891,2.7715759,1.8704529  c2.4257622,1.0273285,3.8596535,2.2555618,5.5414619,4.2626572c1.8551254,2.2140274,5.0121994-0.9717255,3.1700974-3.1700974  c-1.2137833-1.448616-2.4768753-2.9378357-4.0878677-3.9654922c-1.7763672-1.1331177-3.7355347-1.4464264-4.8232231-3.3769073  c-0.3715401-2.0890808-0.8244591-4.1604919-1.6405983-6.1304321c-0.7515602-1.8141327-2.2701721-3.4132462-3.4212914-5.0925903  c0.6479073,0.5051804,1.3688774,0.9671326,2.1896133,1.3691559c2.1792717,1.0674973,4.6821404,0.7647476,6.7686501,1.9536285  c2.4383469,1.3893509,3.3268356,4.218605,4.8613739,6.4598846c2.7869568,4.0704041,6.6111984,7.1277695,11.1013565,9.1262741  c2.6130371,1.1630554,4.8964005-2.6988983,2.2627335-3.8710938c-4.7438736-2.1114655-8.1778641-5.2671661-10.8420105-9.7197876  c-1.8382187-3.0721893-3.6195679-5.9759293-7.303772-6.9339218c-2.5742874-0.6693649-4.884079-0.4702148-6.8847771-2.5768051  c-1.5957222-1.6801605-2.3459167-4.1092606-2.7295494-6.3329163c-0.6451721-3.7395287-0.3816109-7.5295143-0.5704727-11.3040695  c0.5782433-0.3469696,1.0338974-0.9217606,1.1417084-1.737793c0.6580353-4.9810562,7.0323792-3.5892487,11.1151505-4.788311  c0.2361526,0.2209892,0.5335312,0.4025726,0.9109268,0.5149231c2.0549316,0.6117363,2.8606186,1.2686195,3.8795776,3.1113243  c0.9437637,1.7068138,1.979248,2.9892235,3.8368301,3.7132034c2.6894913,1.0482903,3.8550034-3.2850761,1.1917877-4.3230782  c-0.4828568-0.1881523-0.845253-1.0835876-1.0672302-1.4851723c-0.4160843-0.7527122-0.809845-1.499897-1.3309479-2.1883011  c-0.7538605-0.9959717-1.7049026-1.6723938-2.7581711-2.1882477c2.8165054-2.2941971,5.4858551-4.9468002,9.1237564-5.3538017  c2.8353348-0.3171959,2.867569-4.8039627,0-4.4832077c-7.5914078,0.8493004-11.9184341,9.6666985-19.5130157,8.9590302  c-0.6359787-0.059269-1.2319527-0.0545082-1.8088799-0.0202484c2.3688393-7.0890198,8.5248833-7.8131638,14.8154945-10.3666039  c1.8695221-0.7588387,3.3939896-1.7750034,4.7061691-2.97505c0.2962875,0.1690502,0.6455002,0.2809124,1.0620804,0.2934437  c2.8464966,0.0854836,5.6564941-0.3797474,8.3075638-1.4221821C93.1906586,26.9818497,92.0347748,22.6446495,89.3443069,23.7026253z   M50.3918762,13.7380466c0.1694336,0.1276226,0.3595543,0.2024889,0.5556412,0.2551365  c-0.6605492,1.1524887-1.3144264,2.3088093-1.938694,3.4826412c-0.4587173,0.1748524-0.8375893,0.536869-1.0217438,1.1202011  c-0.4392929-0.9072056-0.7741089-1.8575878-0.8748093-2.8695936c-0.15411-1.5481634,0.0953903-2.9169874-0.1990929-4.4769716  c-0.0623894-0.3303843-0.1802177-0.6007347-0.331974-0.825223C47.7636299,11.6066618,49.0269394,12.7098417,50.3918762,13.7380466z   M50.5035744,34.2367477c-1.6671944,0.7307091-3.2234001,1.4106331-4.4586906,2.7972412  c-1.3690453,1.5366707-2.0120811,3.3083954-2.2540817,5.1729851c-0.0861435-0.0298805-0.1579437-0.0736618-0.2474747-0.1002045  c0.046627-0.4103928-0.0230942-0.8539543-0.2646065-1.3081322c-1.2873878-2.4208336-3.336956-3.670517-5.257206-5.230938  c1.211319-1.9087563,1.3430443-3.512249,3.6337395-4.2772732c1.8398018-0.6144161,3.4216766-1.0147419,5.0407677-2.1647148  c0.7199821-0.5113659,1.3791656-1.0907574,1.9774933-1.72192c1.5055847,1.6602974,3.176609,3.1537895,4.9837379,4.5355282  C52.8718719,32.8549538,51.8788033,33.6340408,50.5035744,34.2367477z M65.8070145,30.134161  c-0.337059,0.4376488-0.4637527,0.8727798-0.4407654,1.275568c-4.2207985,2.3063469-7.0785141,6.0580788-8.3457108,10.8503876  c-0.1777534,0.6722069-0.057518,1.2484779,0.2308922,1.7018356c-0.5348434,0.3879013-1.0095444,0.8521461-1.4341698,1.3751717  c-0.5918694-2.3007126-1.372818-4.5511818-0.1982727-7.0885849c0.2762032-0.5966835,0.2770805-1.1730652,0.1131744-1.6807098  c2.9832611-2.2482834,4.0366936-6.3378429,5.399662-9.6443195c0.3372269-0.8181629,0.1596375-1.4925594-0.2760963-1.9609661  c0.024025-0.2306175,0.0227661-0.4532452,0.03508-0.6799793c1.3333054,0.6371288,2.9740105,0.7914581,4.1152802,1.6851997  c0.7018204,0.5496197,1.5859833,0.7894325,2.3747025,0.507864C67.2843628,27.6292114,66.8346176,28.7999249,65.8070145,30.134161z"/><text x="0" y="115" fill="#000000" font-size="5px" font-weight="bold" font-family="'Helvetica Neue', Helvetica, Arial-Unicode, Arial, Sans-serif">Created by evi1000</text><text x="0" y="120" fill="#000000" font-size="5px" font-weight="bold" font-family="'Helvetica Neue', Helvetica, Arial-Unicode, Arial, Sans-serif">from the Noun Project</text></svg>